<?xml version="1.0" standalone="no"?><!DOCTYPE svg PUBLIC "-//W3C//DTD SVG 1.1//EN" "http://www.w3.org/Graphics/SVG/1.1/DTD/svg11.dtd"><svg t="1584273265426" class="icon" viewBox="0 0 1199 1024" version="1.1" xmlns="http://www.w3.org/2000/svg" p-id="2103" width="37.46875" height="32" xmlns:xlink="http://www.w3.org/1999/xlink"><defs><style type="text/css"></style></defs><path d="M568.232229 788.304457c-10.737371 12.0832-23.610514 9.654857-29.842286-5.558857 0 0-5.909943-28.642743-42.130286-64.833829-36.191086-36.220343-64.804571-42.130286-64.804571-42.130285-15.184457-5.7344-17.525029-19.2512-5.588115-29.842286L1126.868114 22.820571a31.305143 31.305143 0 0 1 42.539886 1.2288l20.714057 20.714058c11.410286 11.410286 11.819886 30.632229 1.2288 42.569142l-623.118628 701.001143zM1.550629 936.989257c220.189257 5.792914 215.742171-126.303086 267.410285-178.000457a132.388571 132.388571 0 0 1 187.245715 0c51.697371 51.697371 43.008 126.829714-8.689372 178.556343-51.697371 51.697371-224.987429 108.982857-445.966628-0.555886z" fill="#f50" stroke="#fff" p-id="2104"></path></svg>
