<?xml version="1.0" standalone="no"?><!DOCTYPE svg PUBLIC "-//W3C//DTD SVG 1.1//EN" "http://www.w3.org/Graphics/SVG/1.1/DTD/svg11.dtd"><svg t="1584273428100" class="icon" viewBox="0 0 1024 1024" version="1.1" xmlns="http://www.w3.org/2000/svg" p-id="6422" xmlns:xlink="http://www.w3.org/1999/xlink" width="32" height="32"><defs><style type="text/css"></style></defs><path d="M141.994667 576a490.154667 490.154667 0 0 1 62.008889-189.013333c33.336889-57.998222 72.334222-105.642667 116.992-142.990223 44.657778-37.319111 97.336889-71.338667 158.008888-102.001777 60.672-30.663111 117.333333-53.987556 169.984-69.973334a1922.474667 1922.474667 0 0 1 165.006223-42.012444c57.344-12.003556 100.693333-19.683556 129.991111-23.011556 29.354667-3.328 56.035556-5.688889 80.014222-6.997333a935.253333 935.253333 0 0 1-6.997333 65.991111 7513.6 7513.6 0 0 1-16.014223 107.008 1075.768889 1075.768889 0 0 1-31.004444 139.008 2541.710222 2541.710222 0 0 1-48.981333 147.996445 728.035556 728.035556 0 0 1-73.016889 147.996444 964.664889 964.664889 0 0 1-98.986667 128c-36.664889 39.992889-81.009778 72.675556-133.006222 97.991111-51.996444 25.315556-108.003556 41.329778-167.992889 48.014222-82.659556 9.329778-166.684444 13.994667-252.017778 13.994667h-21.987555l-120.007111 117.987556c-5.319111 6.684444-12.657778 10.012444-21.987556 10.012444s-17.009778-2.986667-23.011556-8.988444c-5.973333-6.001778-8.988444-13.653333-8.988444-23.011556 0-9.329778 3.328-16.668444 10.012444-21.987556l117.987556-120.035555v-21.987556c0-85.333333 4.664889-169.329778 13.994667-251.989333z m64 5.973333c-6.656 61.354667-10.666667 129.365333-12.003556 204.032l456.021333-455.992889c14.648889-16.014222 29.667556-16.355556 44.999112-1.024 15.331556 15.36 14.990222 30.350222-1.024 44.999112l-71.964445 74.012444h233.984c46.648889-110.648889 78.648889-236.003556 96-376.007111a1604.807111 1604.807111 0 0 0-124.017778 21.020444c-41.329778 8.647111-90.993778 20.992-148.992 36.977778-57.998222 16.014222-111.985778 37.006222-161.991111 63.004445a1023.800889 1023.800889 0 0 0-144.014222 91.022222 421.233778 421.233778 0 0 0-112.981333 128.995555c-29.354667 51.313778-47.331556 107.662222-54.016 168.96zM429.994667 640h316.017777a777.415111 777.415111 0 0 0 81.976889-128h-269.994666z m12.003555 178.005333c91.989333-9.329778 173.994667-47.331556 246.016-114.005333h-321.991111l-128 126.008889c74.638222-1.336889 142.648889-5.347556 203.975111-12.003556z" fill="#f50" stroke="#fff" p-id="6423"></path></svg>
